<svg viewBox="4.72972972972973 5.120000000000001 91.08108108108108 89.91000000000001" version="1.1" xmlns="http://www.w3.org/2000/svg" style="max-height: 500px" width="91.08108108108108" height="89.91000000000001">
 <path d="m11.668 55.625c-2.7188 0-4.9219-2.2031-4.9219-4.9219v-38.703c0-1.2969 0.51562-2.5391 1.4336-3.457 0.91797-0.91797 2.1602-1.4297 3.457-1.4297h13.449v48.512zm79.211-3.1992c1.7969-2.043 2.6328-4.7578 2.2969-7.4609l-3.6641-29.523c-0.58984-4.7539-4.6289-8.3242-9.418-8.3281h-48.793v51.059l12.68 34.715c3.5039 0.63281 7.0938-0.51562 9.582-3.0625 2.4883-2.543 3.5547-6.1562 2.8477-9.6484l-4.5977-20.762v0.003907c-0.21094-0.91797 0.007812-1.8828 0.59375-2.6211 0.58984-0.73828 1.4766-1.168 2.4219-1.1719h28.934c2.7188-0.003906 5.3086-1.168 7.1172-3.1992z"/>
<text fill="#000000" font-family="Arbeit Regular, Helvetica, Arial-Unicode, Arial, Sans-serif" font-weight="bold" font-size="5.0" y="117.5" x="0.0">Created by Dicky Prayudawanto</text><text fill="#000000" font-family="Arbeit Regular, Helvetica, Arial-Unicode, Arial, Sans-serif" font-weight="bold" font-size="5.0" y="122.5" x="0.0">from Noun Project</text></svg>