<svg viewBox="4.72972972972973 5.120000000000001 91.08108108108108 89.91000000000001" version="1.1" xmlns="http://www.w3.org/2000/svg" style="max-height: 500px" width="91.08108108108108" height="89.91000000000001">
 <path d="m25.086 44.375v48.512h-13.449c-2.6992 0-4.8906-2.1875-4.8906-4.8867v-38.703c0-2.7188 2.2031-4.9219 4.9219-4.9219zm58.676 0h-28.934c-0.94141-0.007812-1.8281-0.42969-2.4258-1.1484-0.58984-0.74609-0.80859-1.7188-0.58984-2.6445l4.6016-20.762-0.003906 0.003907c0.70703-3.4922-0.35938-7.1055-2.8477-9.6484-2.4883-2.5469-6.0781-3.6953-9.582-3.0664l-12.68 34.719v51.059h48.793c4.7891-0.003907 8.8281-3.5742 9.418-8.3281l3.668-29.523h-0.003907c0.32031-2.6953-0.52734-5.3984-2.3242-7.4336-1.7969-2.0352-4.375-3.207-7.0898-3.2266z"/>
<text fill="#000000" font-family="Arbeit Regular, Helvetica, Arial-Unicode, Arial, Sans-serif" font-weight="bold" font-size="5.0" y="117.5" x="0.0">Created by Dicky Prayudawanto</text><text fill="#000000" font-family="Arbeit Regular, Helvetica, Arial-Unicode, Arial, Sans-serif" font-weight="bold" font-size="5.0" y="122.5" x="0.0">from Noun Project</text></svg>